<svg xmlns="http://www.w3.org/2000/svg" xmlns:xlink="http://www.w3.org/1999/xlink"><symbol id="icon-button-next" viewBox="0 0 18 34"><path d="M1 1l16 16L1 33" stroke="#AFAFAF"/></symbol><symbol id="icon-ok"><path d="M12.5 0C5.597 0 0 5.597 0 12.5S5.597 25 12.5 25 25 19.403 25 12.5 19.403 0 12.5 0z" fill="#fff"/><path d="M12.68 6.889c.899 0 1.63.754 1.63 1.682 0 .924-.731 1.679-1.63 1.679-.898 0-1.629-.755-1.629-1.68 0-.927.73-1.681 1.63-1.681zm0 5.74c2.17 0 3.935-1.82 3.935-4.058 0-2.24-1.764-4.062-3.935-4.062-2.17 0-3.932 1.821-3.932 4.062 0 2.237 1.762 4.059 3.932 4.059zm1.592 3.314a7.292 7.292 0 002.284-.978c.538-.349.7-1.083.362-1.64a1.13 1.13 0 00-1.59-.374 4.866 4.866 0 01-5.297 0 1.127 1.127 0 00-1.589.374 1.213 1.213 0 00.363 1.64 7.292 7.292 0 002.284.978l-2.2 2.269a1.218 1.218 0 000 1.681c.227.232.52.35.814.35.295 0 .59-.118.818-.35l2.16-2.229 2.162 2.23c.449.466 1.177.466 1.629 0 .45-.464.45-1.218 0-1.682l-2.2-2.269z" fill="#030A1A"/></symbol><symbol id="icon-reddit"><path d="M12.5 0C5.597 0 0 5.597 0 12.5S5.597 25 12.5 25 25 19.403 25 12.5 19.403 0 12.5 0z" fill="#fff"/><path d="M13.85 5.556c-.444 0-.862.226-1.13.551-.269.326-.416.723-.524 1.142-.17.673-.224 1.42-.236 2.093a7.317 7.317 0 00-3.327 1.027c-.382-.32-.842-.5-1.283-.494-.503.004-.98.22-1.334.665-.678.85-.6 2.238.185 3.064a4.173 4.173 0 00-.084.78c0 2.796 2.858 5.06 6.383 5.06s6.383-2.266 6.383-5.06c0-.264-.036-.526-.084-.78.785-.826.863-2.214.185-3.064a1.697 1.697 0 00-1.334-.665c-.44-.005-.901.173-1.283.494a7.313 7.313 0 00-3.31-1.027c.017-.62.061-1.265.186-1.75.078-.305.171-.526.27-.647.1-.122.171-.172.338-.172.36 0 .407.117.625.4.11.143.236.32.439.495.202.173.502.323.827.323V6.773c-.09 0-.108-.002-.169-.057-.06-.054-.145-.18-.27-.342-.249-.326-.732-.818-1.452-.818zm3.513.114c-.84 0-1.52.766-1.52 1.712 0 .947.68 1.712 1.52 1.712s1.52-.765 1.52-1.712c0-.946-.68-1.712-1.52-1.712zm0 .609c.54 0 .98.494.98 1.103s-.44 1.104-.98 1.104-.98-.495-.98-1.104c0-.609.44-1.103.98-1.103zM12.5 10.293c2.991 0 5.522 1.877 5.522 4.09 0 2.217-2.531 4.091-5.522 4.091s-5.522-1.874-5.522-4.09c0-2.215 2.531-4.09 5.522-4.09zm-5.133.552c.15.002.306.04.455.114a4.986 4.986 0 00-1.266 1.598c-.203-.47-.148-1.058.101-1.37a.877.877 0 01.71-.342zm10.266 0a.877.877 0 01.71.342c.249.312.304.9.1 1.37a4.984 4.984 0 00-1.266-1.598c.15-.074.306-.112.456-.114zm-7.294 1.522c-.54 0-.98.495-.98 1.103 0 .61.44 1.104.98 1.104s.979-.495.979-1.104c0-.608-.44-1.103-.98-1.103zm4.322 0c-.54 0-.979.495-.979 1.103 0 .61.44 1.104.98 1.104s.979-.495.979-1.104c0-.608-.44-1.103-.98-1.103zm-4.846 3.748c.344.802 1.408 1.58 2.685 1.58 1.277 0 2.358-.779 2.702-1.58-.625.454-1.61.761-2.702.761-1.091 0-2.06-.307-2.685-.761z" fill="#030A1A"/></symbol><symbol id="icon-vk"><path d="M12.5 0C5.597 0 0 5.597 0 12.5S5.597 25 12.5 25 25 19.403 25 12.5 19.403 0 12.5 0z" fill="#fff"/><path d="M13.723 15.052c.442-.143 1.01.944 1.612 1.36.453.316.8.248.8.248l1.608-.023s.84-.052.444-.72c-.033-.055-.233-.495-1.197-1.4-1.008-.945-.872-.792.342-2.427.74-.997 1.035-1.606.942-1.866-.088-.25-.632-.184-.632-.184l-1.811.012c-.177 0-.326.055-.394.239-.002.002-.288.771-.67 1.425-.806 1.385-1.128 1.458-1.261 1.372-.306-.201-.229-.805-.229-1.234 0-1.341.2-1.9-.391-2.045-.198-.049-.343-.08-.847-.085-.644-.01-1.192 0-1.502.153-.206.103-.364.33-.268.342.12.017.39.074.535.272.185.255.18.828.18.828s.106 1.58-.25 1.775c-.245.135-.58-.14-1.298-1.396-.367-.643-.645-1.353-.645-1.353s-.053-.132-.15-.204c-.116-.086-.279-.113-.279-.113l-1.72.01s-.258.008-.353.122c-.084.101-.007.31-.007.31s1.347 3.186 2.873 4.79c1.398 1.474 2.987 1.376 2.987 1.376h.72s.218-.025.329-.144c.103-.111.099-.32.099-.32s-.015-.977.433-1.12z" fill="#030A1A"/></symbol><symbol id="logo" viewBox="0 0 87 20"><path d="M.676 5.168c0-1.473.355-2.6 1.066-3.38C2.452.991 3.502.592 4.888.592c1.387 0 2.435.399 3.146 1.196.71.78 1.066 1.907 1.066 3.38v.572H6.396v-.754c0-1.196-.477-1.794-1.43-1.794s-1.43.598-1.43 1.794c0 .676.19 1.317.572 1.924.381.59.84 1.127 1.378 1.612.555.485 1.11.997 1.664 1.534.555.52 1.023 1.179 1.404 1.976.381.78.572 1.647.572 2.6 0 1.473-.364 2.609-1.092 3.406-.728.78-1.785 1.17-3.172 1.17-1.387 0-2.444-.39-3.172-1.17-.728-.797-1.092-1.933-1.092-3.406v-1.118h2.704v1.3c0 1.179.494 1.768 1.482 1.768s1.482-.59 1.482-1.768a3.43 3.43 0 00-.572-1.898 7.405 7.405 0 00-1.404-1.638c-.537-.485-1.083-.988-1.638-1.508-.555-.537-1.023-1.196-1.404-1.976C.867 6.997.676 6.121.676 5.168zM11.155.8h2.86v14.04c0 1.179.494 1.768 1.482 1.768s1.482-.59 1.482-1.768V.8h2.704v13.858c0 1.473-.364 2.609-1.092 3.406-.728.78-1.786 1.17-3.172 1.17-1.387 0-2.444-.39-3.172-1.17-.728-.797-1.092-1.933-1.092-3.406V.8zm15.221 0c2.843 0 4.264 1.5 4.264 4.498v2.366c0 2.999-1.421 4.498-4.264 4.498h-1.352V19h-2.86V.8h4.212zm0 2.6h-1.352v6.162h1.352c.468 0 .815-.13 1.04-.39.243-.26.364-.702.364-1.326v-2.73c0-.624-.121-1.066-.364-1.326-.225-.26-.572-.39-1.04-.39zm8.969 0v5.07h3.926v2.6h-3.926v5.33h4.94V19h-7.8V.8h7.8v2.6h-4.94zM51.469 19h-2.912c-.173-.52-.26-1.265-.26-2.236v-2.86c0-.832-.147-1.421-.442-1.768-.295-.364-.771-.546-1.43-.546h-.988V19h-2.86V.8h4.316c1.473 0 2.548.347 3.224 1.04.676.676 1.014 1.725 1.014 3.146v1.43c0 1.872-.624 3.103-1.872 3.692 1.265.537 1.898 1.829 1.898 3.874v2.808c0 .988.104 1.725.312 2.21zM46.815 3.4h-1.378v5.59h1.118c.572 0 .997-.147 1.274-.442.295-.295.442-.789.442-1.482V5.272c0-1.248-.485-1.872-1.456-1.872zm11.033 8.06v-2.6h4.004v5.772c0 1.473-.364 2.609-1.092 3.406-.728.78-1.785 1.17-3.172 1.17-1.387 0-2.444-.39-3.172-1.17-.728-.797-1.092-1.933-1.092-3.406V5.168c0-1.473.364-2.6 1.092-3.38.728-.797 1.785-1.196 3.172-1.196 1.387 0 2.444.399 3.172 1.196.728.78 1.092 1.907 1.092 3.38v1.768h-2.704v-1.95c0-1.196-.494-1.794-1.482-1.794s-1.482.598-1.482 1.794v9.828c0 1.179.494 1.768 1.482 1.768s1.482-.59 1.482-1.768V11.46h-1.3zM66.506 19v-6.032L62.892.8h2.99l2.184 8.294L70.25.8h2.73l-3.614 12.168V19h-2.86zM78.609.8l2.106 12.922L82.665.8h3.978V19h-2.704V5.948L81.963 19h-2.704L77.127 6.13V19H74.63V.8h3.978z" fill="#fff"/></symbol><symbol id="ruble-icon" viewBox="0 0 30 42"><path fill-rule="evenodd" clip-rule="evenodd" d="M0 17h6v6H0v-6z" fill="#102654"/><path fill-rule="evenodd" clip-rule="evenodd" d="M3.659 28.321V18h6v10.321H21v6H9.659V42h-6v-7.679H0v-6h3.659z" fill="#102654"/><path fill-rule="evenodd" clip-rule="evenodd" d="M18.5 6H10v11h8.5a5.5 5.5 0 100-11zM4 0v23h14.5C24.851 23 30 17.851 30 11.5S24.851 0 18.5 0H4z" fill="#102654"/></symbol></svg>